PathFileType	4	(X/Y/Z)	G:\GRF\jawan data\CompiledGRF\03. Mohit Kumar\0231~ac~Walking 04_markers.trc
DataRate	CameraRate	NumFrames	NumMarkers	Units	OrigDataRate	OrigDataStartFrame	OrigNumFrames
100.000000	100.000000	32	18	mm	100.000000	941	1076
Frame#	Time	c7			r should			l should			sacrum			r asis			r bar 1			r knee 1			r bar 2			r mall			r heel			r met			l asis			l bar 1			l knee 1			l bar 2			l mall			l heel			l met			
		X1	Y1	Z1	X2	Y2	Z2	X3	Y3	Z3	X4	Y4	Z4	X5	Y5	Z5	X6	Y6	Z6	X7	Y7	Z7	X8	Y8	Z8	X9	Y9	Z9	X10	Y10	Z10	X11	Y11	Z11	X12	Y12	Z12	X13	Y13	Z13	X14	Y14	Z14	X15	Y15	Z15	X16	Y16	Z16	X17	Y17	Z17	X18	Y18	Z18	

942	9.41	3326.695556640625	1491.02587890625	236.8889465332031	3421.466552734375	1426.797607421875	406.3494873046875	nan	nan	nan	3264.40283203125	1023.231018066406	217.3477172851563	nan	nan	nan	nan	nan	nan	nan	nan	nan	nan	nan	nan	nan	nan	nan	nan	nan	nan	nan	nan	nan	nan	nan	nan	nan	nan	nan	nan	nan	nan	nan	nan	nan	nan	nan	nan	nan	nan	nan	nan	nan	nan	
943	9.42	nan	nan	nan	3428.60791015625	1425.731079101563	406.0111999511719	nan	nan	nan	3272.38671875	1022.517211914063	216.8324127197266	nan	nan	nan	nan	nan	nan	nan	nan	nan	nan	nan	nan	nan	nan	nan	nan	nan	nan	nan	nan	nan	nan	nan	nan	nan	nan	nan	nan	nan	nan	nan	nan	nan	nan	nan	nan	nan	nan	nan	nan	nan	nan	
944	9.43	3360.65869140625	1487.473510742188	234.7709045410156	3436.27880859375	1424.651733398438	406.1526794433594	nan	nan	nan	3283.108154296875	1021.543884277344	216.4051361083984	nan	nan	nan	nan	nan	nan	nan	nan	nan	nan	nan	nan	nan	nan	nan	nan	nan	nan	nan	nan	nan	nan	nan	nan	nan	nan	nan	nan	nan	nan	nan	nan	nan	nan	nan	nan	nan	nan	nan	nan	nan	nan	
945	9.44	3362.302490234375	1487.297973632813	234.5501098632813	3449.19677734375	1423.292846679688	405.6145629882813	nan	nan	nan	3292.96435546875	1021.047729492188	216.1771392822266	nan	nan	nan	nan	nan	nan	nan	nan	nan	nan	nan	nan	nan	nan	nan	nan	nan	nan	nan	nan	nan	nan	nan	nan	nan	nan	nan	nan	nan	nan	nan	nan	nan	nan	nan	nan	nan	nan	nan	nan	nan	nan	
946	9.450000000000001	3360.85400390625	1487.347900390625	234.2828674316406	3460.274658203125	1422.416381835938	405.0801086425781	nan	nan	nan	3298.775146484375	1021.315124511719	215.7270050048828	nan	nan	nan	nan	nan	nan	nan	nan	nan	nan	nan	nan	nan	nan	nan	nan	nan	nan	nan	nan	nan	nan	nan	nan	nan	nan	nan	nan	nan	nan	nan	nan	nan	nan	nan	nan	nan	nan	nan	nan	nan	nan	
947	9.460000000000001	nan	nan	nan	3466.890869140625	1422.423706054688	404.4808654785156	nan	nan	nan	3308.321044921875	1020.850891113281	215.2175598144531	nan	nan	nan	nan	nan	nan	nan	nan	nan	nan	nan	nan	nan	nan	nan	nan	nan	nan	nan	nan	nan	nan	nan	nan	nan	nan	nan	nan	nan	nan	nan	nan	nan	nan	nan	nan	nan	nan	nan	nan	nan	nan	
948	9.470000000000001	3399.58447265625	1483.61962890625	232.8490142822266	3471.62158203125	1422.38525390625	403.7302856445313	nan	nan	nan	3319.861083984375	1020.053405761719	214.6562652587891	nan	nan	nan	nan	nan	nan	nan	nan	nan	nan	nan	nan	nan	nan	nan	nan	nan	nan	nan	nan	nan	nan	nan	nan	nan	nan	nan	nan	nan	nan	nan	nan	nan	nan	nan	nan	nan	nan	nan	nan	nan	nan	
949	9.48	3402.917724609375	1483.419189453125	232.4369659423828	3482.52783203125	1421.927978515625	402.4327392578125	nan	nan	nan	3330.060302734375	1019.318603515625	214.1971435546875	nan	nan	nan	nan	nan	nan	nan	nan	nan	nan	nan	nan	nan	nan	nan	nan	nan	nan	nan	nan	nan	nan	nan	nan	nan	nan	nan	nan	nan	nan	nan	nan	nan	nan	nan	nan	nan	nan	nan	nan	nan	nan	
950	9.49	3402.717529296875	1483.421020507813	231.8355255126953	3489.125244140625	1422.152099609375	401.2263793945313	nan	nan	nan	3337.193603515625	1018.986572265625	213.7120361328125	nan	nan	nan	nan	nan	nan	nan	nan	nan	nan	nan	nan	nan	nan	nan	nan	nan	nan	nan	nan	nan	nan	nan	nan	nan	nan	nan	nan	nan	nan	nan	nan	nan	nan	nan	nan	nan	nan	nan	nan	nan	nan	
951	9.5	nan	nan	nan	3497.027587890625	1421.8564453125	401.22509765625	nan	nan	nan	3347.790771484375	1018.1640625	213.2400207519531	nan	nan	nan	nan	nan	nan	nan	nan	nan	nan	nan	nan	nan	nan	nan	nan	nan	nan	nan	nan	nan	nan	nan	nan	nan	nan	nan	nan	nan	nan	nan	nan	nan	nan	nan	nan	nan	nan	nan	nan	nan	nan	
952	9.51	3426.821533203125	1481.54345703125	228.4176330566406	3510.326171875	1422.696044921875	401.1045532226563	nan	nan	nan	3361.501708984375	1016.732482910156	212.7590942382813	nan	nan	nan	nan	nan	nan	nan	nan	nan	nan	nan	nan	nan	nan	nan	nan	nan	nan	nan	nan	nan	nan	nan	nan	nan	nan	nan	nan	nan	nan	nan	nan	nan	nan	nan	nan	nan	nan	nan	nan	nan	nan	
953	9.52	3424.57958984375	1481.91064453125	228.1410217285156	3520.178955078125	1424.697875976563	400.9008483886719	nan	nan	nan	3370.817138671875	1016.131164550781	212.0976409912109	nan	nan	nan	nan	nan	nan	nan	nan	nan	nan	nan	nan	nan	nan	nan	nan	nan	nan	nan	nan	nan	nan	nan	nan	nan	nan	nan	nan	nan	nan	nan	nan	nan	nan	nan	nan	nan	nan	nan	nan	nan	nan	
954	9.529999999999999	nan	nan	nan	3527.027099609375	1423.54736328125	399.0472106933594	nan	nan	nan	3378.35009765625	1016.110900878906	211.4066009521484	nan	nan	nan	nan	nan	nan	nan	nan	nan	nan	nan	nan	nan	nan	nan	nan	nan	nan	nan	nan	nan	nan	nan	nan	nan	nan	nan	nan	nan	nan	nan	nan	nan	nan	nan	nan	nan	nan	nan	nan	nan	nan	
955	9.540000000000001	3456.951904296875	1479.983032226563	225.1937408447266	3536.3154296875	1424.012939453125	398.3614196777344	nan	nan	nan	3391.152099609375	1015.269775390625	210.7427978515625	nan	nan	nan	nan	nan	nan	nan	nan	nan	nan	nan	nan	nan	nan	nan	nan	nan	nan	nan	nan	nan	nan	nan	nan	nan	nan	nan	nan	nan	nan	nan	nan	nan	nan	nan	nan	nan	nan	nan	nan	nan	nan	
956	9.550000000000001	3455.068603515625	1480.4482421875	224.9759826660156	3547.231201171875	1425.8037109375	398.4813842773438	nan	nan	nan	3401.241943359375	1015.029541015625	210.1251068115234	nan	nan	nan	nan	nan	nan	nan	nan	nan	nan	nan	nan	nan	nan	nan	nan	nan	nan	nan	nan	nan	nan	nan	nan	nan	nan	nan	nan	nan	nan	nan	nan	nan	nan	nan	nan	nan	nan	nan	nan	nan	nan	
957	9.56	nan	nan	nan	3555.38134765625	1425.825317382813	397.2685546875	nan	nan	nan	3409.2265625	1015.544921875	209.5358734130859	nan	nan	nan	nan	nan	nan	nan	nan	nan	nan	nan	nan	nan	nan	nan	nan	nan	nan	nan	nan	nan	nan	nan	nan	nan	nan	nan	nan	nan	nan	nan	nan	nan	nan	nan	nan	nan	nan	nan	nan	nan	nan	
958	9.57	nan	nan	nan	3561.61669921875	1424.58251953125	394.8657836914063	nan	nan	nan	3420.720947265625	1015.723693847656	209.068359375	nan	nan	nan	nan	nan	nan	nan	nan	nan	nan	nan	nan	nan	nan	nan	nan	nan	nan	nan	nan	nan	nan	nan	nan	nan	nan	nan	nan	nan	nan	nan	nan	nan	nan	nan	nan	nan	nan	nan	nan	nan	nan	
959	9.58	3470.358642578125	1483.124755859375	220.1928405761719	3570.709228515625	1424.152465820313	393.2387084960938	nan	nan	nan	3434.177978515625	1015.73583984375	208.8164215087891	nan	nan	nan	nan	nan	nan	nan	nan	nan	nan	nan	nan	nan	nan	nan	nan	nan	nan	nan	nan	nan	nan	nan	nan	nan	nan	nan	nan	nan	nan	nan	nan	nan	nan	nan	nan	nan	nan	nan	nan	nan	nan	
960	9.59	nan	nan	nan	3579.650146484375	1424.5380859375	393.021728515625	nan	nan	nan	3446.925537109375	1016.090637207031	208.8786926269531	nan	nan	nan	nan	nan	nan	nan	nan	nan	nan	nan	nan	nan	nan	nan	nan	nan	nan	nan	nan	nan	nan	nan	nan	nan	nan	nan	nan	nan	nan	nan	nan	nan	nan	nan	nan	nan	nan	nan	nan	nan	nan	
961	9.6	3503.8603515625	1482.416259765625	217.2709503173828	3582.902587890625	1426.694580078125	392.4545593261719	nan	nan	nan	3453.667724609375	1017.827758789063	208.8025360107422	nan	nan	nan	nan	nan	nan	nan	nan	nan	nan	nan	nan	nan	nan	nan	nan	nan	nan	nan	nan	nan	nan	nan	nan	nan	nan	nan	nan	nan	nan	nan	nan	nan	nan	nan	nan	nan	nan	nan	nan	nan	nan	
962	9.609999999999999	3506.544189453125	1483.85205078125	217.1645202636719	3593.78271484375	1428.374267578125	391.422119140625	nan	nan	nan	3458.10595703125	1020.107360839844	208.8478240966797	nan	nan	nan	nan	nan	nan	nan	nan	nan	nan	nan	nan	nan	nan	nan	nan	nan	nan	nan	nan	nan	nan	nan	nan	nan	nan	nan	nan	nan	nan	nan	nan	nan	nan	nan	nan	nan	nan	nan	nan	nan	nan	
963	9.620000000000001	3519.80322265625	1484.343994140625	216.7289428710938	3609.93701171875	1428.768432617188	391.2710266113281	nan	nan	nan	3468.76708984375	1021.379577636719	208.874755859375	nan	nan	nan	nan	nan	nan	nan	nan	nan	nan	nan	nan	nan	nan	nan	nan	nan	nan	nan	nan	nan	nan	nan	nan	nan	nan	nan	nan	nan	nan	nan	nan	nan	nan	nan	nan	nan	nan	nan	nan	nan	nan	
964	9.630000000000001	3534.32373046875	1483.599975585938	216.3148345947266	3614.53955078125	1431.009033203125	390.9865417480469	nan	nan	nan	3481.75732421875	1022.05419921875	208.5146179199219	nan	nan	nan	nan	nan	nan	nan	nan	nan	nan	nan	nan	nan	nan	nan	nan	nan	nan	nan	nan	nan	nan	nan	nan	nan	nan	nan	nan	nan	nan	nan	nan	nan	nan	nan	nan	nan	nan	nan	nan	nan	nan	
965	9.640000000000001	nan	nan	nan	3615.27734375	1432.86474609375	390.7352905273438	nan	nan	nan	3493.414306640625	1022.834289550781	208.1020202636719	nan	nan	nan	nan	nan	nan	nan	nan	nan	nan	nan	nan	nan	nan	nan	nan	nan	nan	nan	nan	nan	nan	nan	nan	nan	nan	nan	nan	nan	nan	nan	nan	nan	nan	nan	nan	nan	nan	nan	nan	nan	nan	
966	9.65	nan	nan	nan	nan	nan	nan	nan	nan	nan	3500.33056640625	1024.306518554688	207.6158294677734	nan	nan	nan	nan	nan	nan	nan	nan	nan	nan	nan	nan	nan	nan	nan	nan	nan	nan	nan	nan	nan	nan	nan	nan	nan	nan	nan	nan	nan	nan	nan	nan	nan	nan	nan	nan	nan	nan	nan	nan	nan	nan	
967	9.66	3555.564453125	1488.536743164063	214.9921112060547	nan	nan	nan	nan	nan	nan	3510.8427734375	1024.902954101563	206.8636627197266	nan	nan	nan	nan	nan	nan	nan	nan	nan	nan	nan	nan	nan	nan	nan	nan	nan	nan	nan	nan	nan	nan	nan	nan	nan	nan	nan	nan	nan	nan	nan	nan	nan	nan	nan	nan	nan	nan	nan	nan	nan	nan	
968	9.67	nan	nan	nan	3651.18798828125	1437.844360351563	389.6013793945313	nan	nan	nan	3523.531982421875	1024.943603515625	205.8668823242188	nan	nan	nan	nan	nan	nan	nan	nan	nan	nan	nan	nan	nan	nan	nan	nan	nan	nan	nan	nan	nan	nan	nan	nan	nan	nan	nan	nan	nan	nan	nan	nan	nan	nan	nan	nan	nan	nan	nan	nan	nan	nan	
969	9.68	nan	nan	nan	3650.8369140625	1439.072265625	389.8499755859375	nan	nan	nan	3529.726806640625	1025.859619140625	204.6752014160156	nan	nan	nan	nan	nan	nan	nan	nan	nan	nan	nan	nan	nan	nan	nan	nan	nan	nan	nan	nan	nan	nan	nan	nan	nan	nan	nan	nan	nan	nan	nan	nan	nan	nan	nan	nan	nan	nan	nan	nan	nan	nan	
970	9.69	3587.03564453125	1488.677490234375	213.8402404785156	3656.773193359375	1439.874633789063	390.0524291992188	nan	nan	nan	3535.458251953125	1026.585815429688	203.5799102783203	nan	nan	nan	nan	nan	nan	nan	nan	nan	nan	nan	nan	nan	nan	nan	nan	nan	nan	nan	nan	nan	nan	nan	nan	nan	nan	nan	nan	nan	nan	nan	nan	nan	nan	nan	nan	nan	nan	nan	nan	nan	nan	
971	9.700000000000001	nan	nan	nan	3666.233642578125	1440.388061523438	389.7574462890625	nan	nan	nan	3544.63916015625	1026.532470703125	202.4761657714844	nan	nan	nan	nan	nan	nan	nan	nan	nan	nan	nan	nan	nan	nan	nan	nan	nan	nan	nan	nan	nan	nan	nan	nan	nan	nan	nan	nan	nan	nan	nan	nan	nan	nan	nan	nan	nan	nan	nan	nan	nan	nan	
972	9.710000000000001	3594.359619140625	1491.778442382813	213.2263641357422	3679.311767578125	1440.4609375	389.5753784179688	nan	nan	nan	3554.681640625	1026.199462890625	201.8356323242188	nan	nan	nan	nan	nan	nan	nan	nan	nan	nan	nan	nan	nan	nan	nan	nan	nan	nan	nan	nan	nan	nan	nan	nan	nan	nan	nan	nan	nan	nan	nan	nan	nan	nan	nan	nan	nan	nan	nan	nan	nan	nan	
973	9.720000000000001	nan	nan	nan	3690.244384765625	1440.01025390625	389.6671447753906	nan	nan	nan	3559.697021484375	1026.76953125	201.4670562744141	nan	nan	nan	nan	nan	nan	nan	nan	nan	nan	nan	nan	nan	nan	nan	nan	nan	nan	nan	nan	nan	nan	nan	nan	nan	nan	nan	nan	nan	nan	nan	nan	nan	nan	nan	nan	nan	nan	nan	nan	nan	nan	
